<svg width="32" height="32" viewBox="0 0 32 32" fill="none" xmlns="http://www.w3.org/2000/svg">
<g clip-path="url(#clip0_314_698)">
<path d="M16.5 27H5.95875C5.8328 27.0002 5.70805 26.9755 5.59166 26.9274C5.47526 26.8792 5.36951 26.8086 5.28045 26.7196C5.19138 26.6305 5.12077 26.5247 5.07265 26.4083C5.02452 26.2919 4.99984 26.1672 5 26.0413V15.5C5 12.45 6.2116 9.52494 8.36827 7.36827C10.5249 5.2116 13.45 4 16.5 4C18.0102 4 19.5056 4.29746 20.9009 4.87539C22.2961 5.45331 23.5639 6.3004 24.6317 7.36827C25.6996 8.43615 26.5467 9.7039 27.1246 11.0991C27.7025 12.4944 28 13.9898 28 15.5C28 17.0102 27.7025 18.5056 27.1246 19.9009C26.5467 21.2961 25.6996 22.5639 24.6317 23.6317C23.5639 24.6996 22.2961 25.5467 20.9009 26.1246C19.5056 26.7025 18.0102 27 16.5 27Z" stroke="#89939E" stroke-width="2" stroke-linecap="round" stroke-linejoin="round"/>
<path d="M16.5 17.5C17.3284 17.5 18 16.8284 18 16C18 15.1716 17.3284 14.5 16.5 14.5C15.6716 14.5 15 15.1716 15 16C15 16.8284 15.6716 17.5 16.5 17.5Z" fill="#89939E"/>
<path d="M11 17.5C11.8284 17.5 12.5 16.8284 12.5 16C12.5 15.1716 11.8284 14.5 11 14.5C10.1716 14.5 9.5 15.1716 9.5 16C9.5 16.8284 10.1716 17.5 11 17.5Z" fill="#89939E"/>
<path d="M22 17.5C22.8284 17.5 23.5 16.8284 23.5 16C23.5 15.1716 22.8284 14.5 22 14.5C21.1716 14.5 20.5 15.1716 20.5 16C20.5 16.8284 21.1716 17.5 22 17.5Z" fill="#89939E"/>
</g>
<defs>
<clipPath id="clip0_314_698">
<rect width="32" height="32" fill="white"/>
</clipPath>
</defs>
</svg>
