<svg width="145" height="32" viewBox="0 0 145 32" fill="none" xmlns="http://www.w3.org/2000/svg">
<path d="M2.02273 4.72727H8.09091L14.5 20.3636H14.7727L21.1818 4.72727H27.25V28H22.4773V12.8523H22.2841L16.2614 27.8864H13.0114L6.98864 12.7955H6.79545V28H2.02273V4.72727ZM52.7792 16.3636C52.7792 18.9015 52.2982 21.0606 51.336 22.8409C50.3815 24.6212 49.0785 25.9811 47.427 26.9205C45.783 27.8523 43.9345 28.3182 41.8815 28.3182C39.8133 28.3182 37.9573 27.8485 36.3133 26.9091C34.6694 25.9697 33.3701 24.6098 32.4156 22.8295C31.461 21.0492 30.9838 18.8939 30.9838 16.3636C30.9838 13.8258 31.461 11.6667 32.4156 9.88636C33.3701 8.10606 34.6694 6.75 36.3133 5.81818C37.9573 4.87879 39.8133 4.40909 41.8815 4.40909C43.9345 4.40909 45.783 4.87879 47.427 5.81818C49.0785 6.75 50.3815 8.10606 51.336 9.88636C52.2982 11.6667 52.7792 13.8258 52.7792 16.3636ZM47.7906 16.3636C47.7906 14.7197 47.5444 13.3333 47.052 12.2045C46.5671 11.0758 45.8815 10.2197 44.9951 9.63636C44.1088 9.05303 43.0709 8.76136 41.8815 8.76136C40.6921 8.76136 39.6542 9.05303 38.7679 9.63636C37.8815 10.2197 37.1921 11.0758 36.6997 12.2045C36.2148 13.3333 35.9724 14.7197 35.9724 16.3636C35.9724 18.0076 36.2148 19.3939 36.6997 20.5227C37.1921 21.6515 37.8815 22.5076 38.7679 23.0909C39.6542 23.6742 40.6921 23.9659 41.8815 23.9659C43.0709 23.9659 44.1088 23.6742 44.9951 23.0909C45.8815 22.5076 46.5671 21.6515 47.052 20.5227C47.5444 19.3939 47.7906 18.0076 47.7906 16.3636ZM59.405 4.72727L65.03 22.4091H65.246L70.8823 4.72727H76.3369L68.3141 28H61.9732L53.9391 4.72727H59.405ZM79.2269 28V4.72727H84.1474V23.9432H94.1246V28H79.2269ZM117.952 16.3636C117.952 18.9015 117.471 21.0606 116.509 22.8409C115.554 24.6212 114.251 25.9811 112.6 26.9205C110.956 27.8523 109.107 28.3182 107.054 28.3182C104.986 28.3182 103.13 27.8485 101.486 26.9091C99.8423 25.9697 98.5431 24.6098 97.5885 22.8295C96.634 21.0492 96.1567 18.8939 96.1567 16.3636C96.1567 13.8258 96.634 11.6667 97.5885 9.88636C98.5431 8.10606 99.8423 6.75 101.486 5.81818C103.13 4.87879 104.986 4.40909 107.054 4.40909C109.107 4.40909 110.956 4.87879 112.6 5.81818C114.251 6.75 115.554 8.10606 116.509 9.88636C117.471 11.6667 117.952 13.8258 117.952 16.3636ZM112.964 16.3636C112.964 14.7197 112.717 13.3333 112.225 12.2045C111.74 11.0758 111.054 10.2197 110.168 9.63636C109.282 9.05303 108.244 8.76136 107.054 8.76136C105.865 8.76136 104.827 9.05303 103.941 9.63636C103.054 10.2197 102.365 11.0758 101.873 12.2045C101.388 13.3333 101.145 14.7197 101.145 16.3636C101.145 18.0076 101.388 19.3939 101.873 20.5227C102.365 21.6515 103.054 22.5076 103.941 23.0909C104.827 23.6742 105.865 23.9659 107.054 23.9659C108.244 23.9659 109.282 23.6742 110.168 23.0909C111.054 22.5076 111.74 21.6515 112.225 20.5227C112.717 19.3939 112.964 18.0076 112.964 16.3636ZM137.118 12.25C136.959 11.697 136.735 11.2083 136.447 10.7841C136.159 10.3523 135.807 9.98864 135.39 9.69318C134.981 9.39015 134.512 9.15909 133.981 9C133.459 8.84091 132.879 8.76136 132.243 8.76136C131.053 8.76136 130.008 9.05682 129.106 9.64773C128.212 10.2386 127.515 11.0985 127.015 12.2273C126.515 13.3485 126.265 14.7197 126.265 16.3409C126.265 17.9621 126.512 19.3409 127.004 20.4773C127.497 21.6136 128.193 22.4811 129.095 23.0795C129.997 23.6705 131.061 23.9659 132.288 23.9659C133.402 23.9659 134.353 23.7689 135.14 23.375C135.936 22.9735 136.542 22.4091 136.959 21.6818C137.383 20.9545 137.595 20.0947 137.595 19.1023L138.595 19.25H132.595V15.5455H142.334V18.4773C142.334 20.5227 141.902 22.2803 141.038 23.75C140.175 25.2121 138.985 26.3409 137.47 27.1364C135.955 27.9242 134.22 28.3182 132.265 28.3182C130.084 28.3182 128.167 27.8371 126.515 26.875C124.864 25.9053 123.576 24.5303 122.652 22.75C121.735 20.9621 121.277 18.8409 121.277 16.3864C121.277 14.5 121.55 12.8182 122.095 11.3409C122.648 9.85606 123.421 8.59848 124.413 7.56818C125.406 6.53788 126.561 5.75379 127.879 5.21591C129.197 4.67803 130.625 4.40909 132.163 4.40909C133.481 4.40909 134.709 4.60227 135.845 4.98864C136.981 5.36742 137.989 5.9053 138.868 6.60227C139.754 7.29924 140.478 8.12879 141.038 9.09091C141.599 10.0455 141.959 11.0985 142.118 12.25H137.118Z" fill="#1B1B1B"/>
</svg>
